<?xml version="1.0" encoding="UTF-8"?>
<svg width="24px" height="24px" viewBox="0 0 24 24" version="1.1" xmlns="http://www.w3.org/2000/svg" xmlns:xlink="http://www.w3.org/1999/xlink">
    <title>Icon/common/add_friends</title>
    <g id="Icon/common/add_friends" stroke="none" stroke-width="1" fill="none" fill-rule="evenodd">
        <path d="M19.504,15.0063807 C20.057,15.0063807 20.504,15.4538593 20.504,16.0074514 L20.504,16.0074514 L20.504,18.5021197 L23,18.5021197 C23.553,18.5021197 24,18.9495983 24,19.5031904 C24,20.0567825 23.553,20.5042611 23,20.5042611 L23,20.5042611 L20.504,20.5042611 L20.504,22.9989293 C20.504,23.5525214 20.057,24 19.504,24 C18.951,24 18.504,23.5525214 18.504,22.9989293 L18.504,22.9989293 L18.504,20.5042611 L16.009,20.5042611 C15.456,20.5042611 15.009,20.0567825 15.009,19.5031904 C15.009,18.9495983 15.456,18.5021197 16.009,18.5021197 L16.009,18.5021197 L18.504,18.5021197 L18.504,16.0074514 C18.504,15.4538593 18.951,15.0063807 19.504,15.0063807 Z M12,1 C18.065,1 23,5.94028396 23,12.0117778 C23,12.5653699 22.553,13.0128485 22,13.0128485 C21.447,13.0128485 21,12.5653699 21,12.0117778 C21,7.04346388 16.963,3.00214142 12,3.00214142 C7.037,3.00214142 3,7.04346388 3,12.0117778 C3,16.9800918 7.037,21.0214142 12,21.0214142 C12.553,21.0214142 13,21.4688928 13,22.0224849 C13,22.576077 12.553,23.0235556 12,23.0235556 C5.935,23.0235556 1,18.0832717 1,12.0117778 C1,5.94028396 5.935,1 12,1 Z M16.4757,12.2308121 C16.9227,11.8724288 17.5627,11.9635262 17.9037,12.4340294 C18.2437,12.9055337 18.1577,13.5782533 17.7097,13.9366366 C16.2517,15.1048861 14.3387,15.6784996 12.0017,15.6825248 C9.6617,15.6865082 7.7477,15.1148968 6.2887,13.9406409 C5.8417,13.5822575 5.7567,12.909538 6.0977,12.4380337 C6.4397,11.9675305 7.0787,11.8774341 7.5257,12.2378196 C8.5977,13.0987404 10.0777,13.5422147 11.9977,13.5382104 C13.9197,13.5352072 15.4027,13.0907318 16.4757,12.2308121 Z M14.444,8.3405512 C15.119,8.3405512 15.667,8.88913795 15.667,9.56486068 C15.667,10.2405834 15.119,10.7881691 14.444,10.7881691 C13.77,10.7881691 13.223,10.2405834 13.223,9.56486068 C13.223,8.88913795 13.77,8.3405512 14.444,8.3405512 Z M9.5553,8.3405512 C10.2303,8.3405512 10.7773,8.88913795 10.7773,9.56486068 C10.7773,10.2405834 10.2303,10.7881691 9.5553,10.7881691 C8.8813,10.7881691 8.3333,10.2405834 8.3333,9.56486068 C8.3333,8.88913795 8.8813,8.3405512 9.5553,8.3405512 Z" id="Combined-Shape" fill="#000000"></path>
    </g>
</svg>